<svg xmlns="http://www.w3.org/2000/svg" width="187" height="106" viewBox="0 0 187 106">
    <g fill="none" fill-rule="evenodd">
        <path stroke="#373738" stroke-linecap="round" stroke-linejoin="round" stroke-width="3" d="M121.344 45.573l4.845-.345M84.923 64.098L92.6 47.623l18.13-1.293M78.377 78.148l2.53-5.43"/>
        <path stroke="#FF0014" stroke-linecap="round" stroke-linejoin="round" stroke-width="3" d="M124.166 49.79l-5.937-8.624-39.93 27.493 6.307 9.16"/>
        <path stroke="#373738" stroke-linecap="round" stroke-linejoin="round" stroke-width="3" d="M126.19 45.228l-13.81 31.125-34.003 1.795 17.73 25.749 47.812-32.92z"/>
        <path stroke="#FF0014" stroke-linecap="round" stroke-linejoin="round" stroke-width="3" d="M102.998 5.75l.517-4.25M108.325 8.468c2.112-1.813 6.09-4.759 8.63-5.335M109.48 14.532c3.699.333 7.382.833 11.036 1.498M104.245 17.555c-.025.244-.04.488-.053.733l-.321 5.623M97.813 16.307a20.25 20.25 0 0 0-4.061 3.563M97.481 9.88l-4.956-.603M72.997 47.596s-19.848-14.194-52.26-5.326M9.432 47.958a3.868 3.868 0 1 1-7.68-.933 3.868 3.868 0 0 1 7.68.933z"/>
        <path fill="#FF0014" d="M154.45 80.602a3.078 3.078 0 1 1-4.848 3.796 3.078 3.078 0 0 1 4.847-3.796M148.749 57.826a2.703 2.703 0 1 1-4.256 3.333 2.703 2.703 0 0 1 4.256-3.333M185.825 49.694a2.703 2.703 0 1 1-4.256 3.333 2.703 2.703 0 0 1 4.256-3.333"/>
    </g>
</svg>
